<svg
        width="16px"
        height="26px"
        viewBox="0 0 40 63"
        fill="none"
        xmlns="http://www.w3.org/2000/svg"
>
    <path
            d="M2.6142 15.2367C-0.871406 11.7511 -0.871399 6.09981 2.61421 2.61421C6.09982 -0.871402 11.7511 -0.871402 15.2367 2.61421L37.3857 24.7632C40.8713 28.2488 38.7751 32.0814 35.2895 35.567C31.8039 39.0527 28.2488 40.8713 24.7632 37.3857L2.6142 15.2367Z"
            fill="#05F1D8"
    />
    <path
            d="M2.67141 47.2516C-0.738033 50.661 -0.738026 56.1888 2.67141 59.5982C6.08085 63.0077 11.6086 63.0077 15.0181 59.5982L37.4429 37.1734C40.8523 33.764 40.8523 28.2362 37.4429 24.8267C34.0335 21.4173 28.5057 21.4173 25.0962 24.8267L2.67141 47.2516Z"
            fill="#05F1D8"
    />
    <path
            d="M36.0527 38.4845C32.5822 40.8215 27.8329 40.4552 24.7633 37.3855L18.6108 31.2331L25.1769 24.6669C28.1751 21.6688 32.8113 21.3071 36.2047 23.5819L37.3858 24.763C39.765 27.1422 40.5202 30.5304 39.6514 33.5502C39.2391 34.8166 38.5638 36.0639 37.5576 37.0701L36.7228 37.951L36.0527 38.4845Z"
            fill="#03BBA7"
    />
</svg>

